<?xml version="1.0" encoding="utf-8"?>
<!-- Generator: Adobe Illustrator 24.1.0, SVG Export Plug-In . SVG Version: 6.00 Build 0)  -->
<svg version="1.1" id="Layer_1" xmlns="http://www.w3.org/2000/svg" xmlns:xlink="http://www.w3.org/1999/xlink" x="0px" y="0px"
	 viewBox="0 0 555.7 562.4" style="enable-background:new 0 0 555.7 562.4;" xml:space="preserve">
<style type="text/css">
	.st0{opacity:0.1;}
	.st1{fill:#0C0C0D;}
	.st2{fill:#344C98;}
	.st3{fill:#FCFCFC;}
</style>
<g id="LRQrON" class="st0">
	<path class="st1" d="M466.8,0h18.9c0.1,0.3,0.2,0.8,0.4,0.8C501,2.2,509.4,15,509.4,29.6c0,19-1.1,37.9,0.7,56.8
		c2.4,24,12.6,44.4,27.5,62.8c4.1,5,9.3,9.4,12.1,15.1c3.8,7.3,5.8,15.3,5.9,23.5c0,18,0.4,36-1.6,54c-2.3,21.9-6.7,43.5-13.2,64.5
		c-13.5,43.9-35.7,84.6-65.2,119.8c-19.5,23.4-41,44.6-63.9,64.6c-21.1,18.3-43.1,35.6-66,51.7c-10.8,7.6-21.5,15.4-34.9,17.9
		c-4.6,0.8-9.3,0.4-13.7,2.3h-8.5c-3.6-2-7.6-1-11.5-1.8c-13.8-2.6-26.9-6.8-38.9-14.3c-12.9-8.1-25.5-16.7-37.9-25.5
		c-28.9-20.4-56.1-43-81.6-67.6c-19.4-19.1-37.7-39.2-54.8-60.4c-20.1-24.7-35.8-51.6-44.3-82.7c-5.2-18.3-9.3-36.9-12.3-55.7
		C5,238.6,3,222.8,1.6,206.9c-0.5-5.2,0.5-10.6-1.6-15.6v-44.5c1.9-6.8,1.4-13.9,2.8-20.7c1.3-6.3,1.8-12.9,5.8-18.3
		c8.6-11.3,18.3-21.6,28.3-31.5c18.6-18.6,37.8-36.7,58-53.7c7.8-6.6,15.6-13.3,24.5-18.3c1.2-0.7,2.5-1.4,4.3-1.1
		c10.4,2.1,20.9,3.9,31.4,5.7c24.4,4.2,49,6.4,73.7,8.3c15.4,1.1,30.9,1.3,46.3,1.3c29.5,0,58.9-0.8,88.2-4
		c11.1-1.2,22.3-1.8,33.3-3.2c17.3-2.2,34.6-4.8,51.9-7.6C454.6,2.7,460.9,2.5,466.8,0z M92,95.5c-4.8-5.1-9.5-10.3-15.2-14.5
		c-2.2-2.4-4.3-4.9-6.8-7.1c-5.3-4.7-10.3-4.2-15.3,1.3c-9.1,7.8-17.3,16.5-25.6,25.1l-1,1c-3.1,1.8-4.9,5-7.7,7
		c-10.4,7.5-8.7,19.8-3.4,27.7c7.4,11.3,15.6,22,25.3,31.4c3.9,5.5,8,10.7,13.4,14.6c3.7,2.7,7.8,3,11.3,0
		c17.2-14.5,34.3-29.1,51.4-43.9c5.1-4.4,5.7-10.7,1.5-15.8c-3.5-4.3-7.5-8.2-12-11.4C103.1,105.4,97.7,100.2,92,95.5z M167.4,98.4
		c-7,7-13.7,14.5-19.9,22.2c-4.3,4.2-4.7,7.1-1.2,12.6c6.9,10.9,15.2,20.9,24.5,29.8c7.4,7,14.9,13.8,22.7,20.3
		c6.9,5.8,11.9,5.2,18.2-1c2.5-2.5,5.1-4.8,7.7-7.1c8.6-7.7,17.8-14.8,24-25c4.9-8.1,5.1-15.9,0.7-24c-10.6-19.3-22.3-38-35-55.9
		c-4.5-6.4-10.7-6.6-16.2-0.9C184.3,79,175.5,88.3,167.4,98.4L167.4,98.4z M449.3,439.6c31.2-35,58-72.9,74.6-117.6
		c16.6-44.7,23.9-90.7,21.2-139c-57.7,26.1-113.5,54.6-168.2,86.9c21.8,7.4,40,18.7,55,35c25.8,27.9,35.1,61.1,29.3,98.8
		c-1.9,12.5-7.1,23.8-12.7,34.9c-0.9,0.8-1.8,1.6-1.6,3C448.3,441.4,448.8,440.5,449.3,439.6z M29.3,298.6c-0.3,2.3,0.5,4.8,1.5,7.4
		c5.8,14.6,12.1,28.9,19.2,42.9c14.3,28.4,31.9,54.3,54.7,76.3c4.5,4.3,9,8.6,14.9,10.8c4,1.5,7.6,2,11.4-1.3
		c54.2-47.3,111.6-90.8,171.7-130.4c72.3-47.6,146.9-91,225.8-126.4c5.8-2.6,7.8-6.1,6.2-11.8c-1.1-4.4-3.2-8.4-6.1-11.8
		c-18.7-20.5-27.4-45.5-29.4-72.8c-1-15.7-0.7-31.5,0.9-47.1c1.1-11.5-5.4-18.4-17.3-14.4c-3.1,1.2-6.1,2.6-9,4.2
		c-14.4,7.7-28.6,15.5-43,23.2C379,75,326.4,101.3,274.8,129.6c-7.6,4.2-14.4,8-17.3,18c-3.1,10.8-11.1,19.3-18.7,27.6
		c-27.4,29.8-60.3,52.7-92.4,76.5c-5.3,3.9-11.2,4.2-17.4,1.9c-5.2-1.9-9.7-5.4-14.9-7.2c-4.8-1.6-8.6-7.2-13.1-6.4
		c-4.7,0.9-8.6,5.6-13,8.4c-17.2,11.1-34.3,22.3-50.3,35.1C33,287.1,28.6,291.2,29.3,298.6L29.3,298.6z M405.1,482.7
		c-41.2,19.5-82.4,21.9-123-0.2s-64-56.2-65.5-104.7c-28.2,21.5-55.1,43.7-81.5,66.5c-3.8,3.3-3.7,6.5,0.1,10.3
		c10.3,10.2,20.5,20.4,31.6,29.7c26.8,22.4,56.4,40.1,87,56.2c25.5,13.4,50.4,13,75.2-2.2c17.9-10.7,35.2-22.4,51.9-35
		C389.3,496.9,397.6,490.4,405.1,482.7z M174.5,25.1c16.3,15.5,31.5,32,45.7,49.4c11.6,14.4,22.6,29.2,29.9,46.6
		c3.1,7.5,6.9,8.8,13.7,4.6c23.8-15,48.3-28.6,73.2-41.5c43.6-22.6,88.1-43.3,132.2-64.7c1.4-0.7,3.3-0.7,4.4-3.8
		C373.8,29.5,274.5,39,174.5,25.1z M361.4,334.3c2.3,0.9,3.7-0.5,5.1-2.2c5.6-6.9,11.4-13.7,17.1-20.6c4.5-5.4,4.5-9.5,0.2-15
		c-3.8-4.8-8-9.2-13.2-12.2s-10.7-4.5-17.1-0.5c-29.4,18.6-58.9,37.1-87.2,57.4c-9.5,6.8-18.6,14.1-28.2,20.8
		c-3.2,2.3-3.8,4.6-2.8,8.1c3.7,12.1,12,20,22.6,25.9c1.9,1,3.6,0.3,5.4-0.3c10.4-3.9,20.8-8,31.4-11.5c3.4-1.1,4.6-2.6,4.6-6.3
		c-0.1-3.3,0.8-6.7,1.3-10c1.2-9.3,5.8-17.2,10-25.2c1.7-3.3,1.4-5.9-0.9-8.6c-3.2-3.7-6.4-7.6-9.5-11.3c-0.8-0.9-2.2-1.7-0.3-3
		c1.3-0.9,2.3-2,3.8,0c3.1,4,6.7,7.7,9.7,11.8c2,2.8,4.3,3.3,7.2,2.6c6.6-1.7,13.2-2.7,20.1-1.9S354.4,333.6,361.4,334.3z
		 M24.1,286.1c20.5-22.6,45.6-37.3,69.7-54.1c-32.4-24.7-56.7-57.2-83.5-89C4.2,192.4,12.3,238.9,24.1,286.1z M134.3,244.5
		c5.3-0.2,10.3-2.2,14.4-5.6c13.1-11.1,26-22.4,38.8-33.8c5.1-4.6,4.9-11-0.1-16c-15.3-15.5-30.6-31.1-45.8-46.6
		c-5.1-5.2-9.4-5.5-14.9-0.9c-16.8,14-33.7,28-50.5,42.1c-6.8,5.7-7,10.1-0.8,16.2c5.1,5,10.2,10.1,15.2,15.2
		c9.9,10,20.3,19.2,32.7,25.9C126.7,243,130.5,244.2,134.3,244.5z M134.3,12.7c-3,0.1-6,1-8.5,2.8c-4.1,2.7-8.1,5.6-12.2,8.2
		c-13.5,8.7-24.3,20.3-35.2,31.9c-4.2,4.5-4,11.4,0.5,16.1c13.2,13.6,26.3,27.3,39.9,40.5c9.2,9,19,8.1,27.6-1.3
		c13.6-14.7,27.3-29.4,40.9-44.1c5.1-5.4,5.5-10.2,0.4-15.6c-12.7-13.5-27.2-25.3-43-35C141.8,14.2,138.2,12.9,134.3,12.7
		L134.3,12.7z M380.4,467.9c5.7,0.4,11.4-1.1,16.2-4.3c7.9-5,15.1-11.1,21.3-18.2c10.5-12.4,13.8-26.4,8-42c-0.7-2-1.2-4.3-3.7-5.2
		c-11.5-4.1-23-8.4-34.5-12.4c-2.6-0.9-5.1-0.9-7.5,1.9c-8.8,10.4-20.1,18.4-32.9,23.3c-3.1,1.2-4.5,3.3-4,6.6
		c1.5,10.3,3,20.6,4.5,30.9c0.2,2.4,1.4,4.7,3.3,6.2C359.6,461.5,368.8,467.6,380.4,467.9z M259.2,416.1c0.4,8.6,0.7,17.8,5.6,25.6
		c11.2,17.9,26,29.5,48.4,27.1c10.9-1.1,21.1-6.1,28.6-14.1c1.3-1.2,1.8-3,1.4-4.7c-1.9-11.7-3.7-23.5-5.2-35.2
		c-0.3-2.4-1.2-3.3-3.1-4c-12.7-4.3-23.2-12-32-22.2c-1.4-1.7-2.5-2.1-4.7-1.3c-10.4,4.1-20.8,8-31.3,11.8c-3.3,1.2-5.9,4-6.8,7.4
		C259.1,409.6,259.5,412.6,259.2,416.1L259.2,416.1z M443.2,365.5c0-1.9-0.2-3.9-0.4-5.8c-2.9-14.3-9.2-27.6-18.4-38.9
		c-7.1-9-17.4-12.8-28.7-13.4c-2.1-0.2-4.1,0.7-5.3,2.4c-5.9,7.1-11.7,14.3-17.9,21.1c-3.2,3.6-3.8,6.7-1.4,11.1
		c6,11.1,11.5,22.4,13.6,35.1c0.2,2.6,2,4.8,4.5,5.6c10.2,3.5,20.4,7.1,30.6,10.8c2.7,1,5.4,1.4,7.6-0.5
		C436.2,385.6,442.2,376.5,443.2,365.5L443.2,365.5z M307.3,486c-1.4-4.2-3.5-7.1-7.8-8.7c-14.2-5.3-27.2-13.7-37.9-24.4
		c-3.6-3.7-7.4-4.6-12.8-4.2C264.1,468.9,284.4,479.5,307.3,486z M438.6,442.3c-4.8-1.3-7.7,0-10.7,3.4
		c-10,11.2-21.1,21.1-34.6,27.8c-4,2-5.4,6-7.5,9.6C408.3,476.3,425.2,462,438.6,442.3z M433.6,315.7c-3.1,3.2-2.4,5.6-0.5,8.7
		c7.5,12.2,14.5,24.8,15.8,39.6c0.4,4.6,3.5,5.6,7.2,7C453.6,351,445.8,331.9,433.6,315.7L433.6,315.7z"/>
	<path class="st2" d="M29.3,298.6c-0.7-7.4,3.7-11.5,8.3-15.1c16.1-12.8,33.1-24,50.3-35.1c4.4-2.8,8.3-7.6,13-8.4
		c4.4-0.8,8.3,4.8,13.1,6.4c5.2,1.8,9.7,5.3,14.9,7.2c6.2,2.2,12.1,2,17.4-1.9c32.1-23.8,65-46.7,92.4-76.5
		c7.6-8.2,15.6-16.8,18.7-27.6c2.9-9.9,9.7-13.8,17.3-18c51.6-28.3,104.2-54.6,156.1-82.2c14.4-7.6,28.6-15.5,43-23.2
		c2.9-1.6,5.9-3,9-4.2c11.9-4.1,18.3,2.9,17.3,14.4c-1.6,15.6-1.9,31.4-0.9,47.1c2,27.2,10.7,52.3,29.4,72.8c2.9,3.4,5,7.5,6.1,11.8
		c1.6,5.7-0.4,9.2-6.2,11.8c-78.9,35.5-153.5,78.8-225.8,126.5c-60.1,39.6-117.4,83.1-171.7,130.4c-3.7,3.3-7.4,2.9-11.4,1.3
		c-5.9-2.2-10.4-6.5-14.9-10.8c-22.8-22-40.4-47.9-54.7-76.3c-7.1-14-13.4-28.4-19.2-42.9C29.8,303.4,29,300.9,29.3,298.6z
		 M409.5,185.9c8,2.3,12.8-2.7,10.3-11.3c-2.9-10.2-7.3-19.8-12-29.2c-4-7.8-11.6-7.9-14.7,0.1c-0.1,0.1-0.5,0.1-0.8,0.2
		c-1.5-3.9-2.8-7.9-4.5-11.6c-0.6-1.2-0.2-5-3.2-2.9c-2.4,1.7-8.1,0.9-5.7,7c6.4,16.6,12.8,33.1,20,49.3c0.7,1.6,1.4,4.9,2.8,4.3
		c2.5-1.1,6.4-1,7.1-5L409.5,185.9z M309.9,212.2c1.6,0.4,2,1.7,2.6,2.8c3.1,5.2,6.7,10.2,9.2,15.7c2.8,6,5.5,1.8,8.4,0.6
		c4.2-1.6,1.8-3.8,0.6-5.8c-8.4-14.7-16.5-29.6-23.4-45.1c-2.9-6.6-2.8-6.3-9.2-3c-3.2,1.6-3.5,3.1-1.9,6.1
		c2.5,4.6,4.4,9.6,6.8,14.2c2,4-2,3.5-3.3,4.8s-2.8,1.7-3.9-0.8c-1.6-3.7-3.5-7.2-5.3-10.8c-3.7-7.5-3.6-7.4-10.8-3.1
		c-2,1.2-2.6,2.1-1.4,4.4c9.1,16.7,18.8,33,28.7,49.2c1.1,1.7,2,2.2,3.7,1c1.2-0.8,2.4-1.6,3.7-2.1c2.6-1.2,3.1-2.5,1.3-5.1
		c-3.5-5.2-6.6-10.6-9.7-16c-0.7-1.2-2.8-2.4-1.4-3.9S308.2,213.2,309.9,212.2z M124.8,366.8c-5.1-2.4-8.1-6.4-11.2-10.2
		c-2.5-3-5-6.1-8.9-6.8c-3.2-0.6-3.3-2.2-3.4-4.9c-0.4-7.1-4.8-11.8-10.3-15.2c-5-3.1-9.7-1-14,2.3c-3.6,2.7-6.8,5.7-10.5,8.2
		c-2.7,1.9-2.9,3.2-0.7,5.9c9.4,11.3,18.6,22.7,27.8,34.1c5.3,6.5,5.2,6.4,11.8,1.3c2.2-1.7,2.3-2.7,0.5-4.7
		c-3.3-3.8-6.5-7.9-9.6-12c-0.8-1-3-2-1-3.9c1.5-1.4,3.3-2.3,5.1-1c1.4,1,2.7,2.2,3.8,3.5c1.8,2,3.3,4.3,5,6.4
		c4.4,5.1,4.4,5.1,9.6,1.2L124.8,366.8z M111.2,326.5c-2.7-3.5-5.5-6.8-8-10.2c-1.5-2.1-2.8-2.8-4.8-0.8c-1,1-2.2,1.9-3.4,2.6
		c-2,1.2-2.1,2.2-0.6,4.1c10.6,13.4,21.2,26.8,31.7,40.2c0.6,0.7,1.2,2.2,2,1.7c2.5-1.4,5.1-2.8,6.9-5c1.6-1.9-1.1-3.3-2.1-4.6
		c-4.7-6.3-9.6-12.4-14.3-18.6c-1.3-1.7-2.6-4-0.8-5.7c2.2-2,3.6,0.7,4.8,2.1c4.6,5.7,9.2,11.5,13.6,17.3c4.9,6.3,4.7,6.2,10.7,1.3
		c1.5-1.3,1.4-2,0.4-3.4c-6.4-8.2-12.4-16.6-19.1-24.6C121.4,314.8,114.8,316.2,111.2,326.5z M480.3,127.7c3.9,3.8,7.2,6.1,9.5,9.3
		c3.4,4.7,6.4,3.5,10.1,0.8c2-1.5,2-2.2,0.2-3.9c-5.7-5.3-11.2-10.8-16.9-16.2c-1.7-1.5-2.6-3.6-2.5-5.9c-0.1-5.7-0.5-11.4-0.8-17.3
		c-8,3.7-8,3.7-7.1,11.8c0.2,2.3,0.4,4.6,0.5,6.9c-4.6-7.1-8.5-14.4-12.2-21.7c-1-1.9-1.8-4.2-4.4-1.8c-1.8,1.6-6.1,1.2-3.5,6.2
		c8.6,16.6,16.7,33.5,24.9,50.2c0.9,1.8,1.6,4.4,4.2,2c1.9-1.8,7.1-1.3,4.2-6.5C484,137.3,481.9,132.6,480.3,127.7z M258.2,249.2
		c0.3,6.6,4,12.7,9.9,15.9c3.4,2,7.8,1,10.1-2.2c1.4-1.9,0.8-6,5.6-4.2c1.5,0.6,5.1-2.1,6.4-4.2c0.9-1.5-2.1-3-3.1-4.8
		c-1.3-2.2-2.8-4.3-4.2-6.4c-4.6-7.1-9-14.3-13.9-21.1c-4.1-5.7-11.9-5.3-17.9,0.2c-4.8,4.5-5.3,12.8-0.9,17.3
		c0.4,0.4,1.2,1,1.4,0.9c2.2-1.2,4.4-2.5,6.4-4c1.8-1.3-0.2-2.5-0.4-3.8c-0.3-1.6-0.6-3.3,1.4-4s3.3,0.7,4,2.3
		c1.3,2.8-0.1,5.3-1.4,7.7C259.8,242,258,245.2,258.2,249.2z M340.6,174.8c-3.3-4.7-5.5,0-7.9,0.6s-1.6,2.5-0.9,4.1
		c5.5,12.4,11.7,24.5,18.1,36.5c2.6,5,4.8,0.8,7.1,0.1c3.1-0.9,2.5-2.6,1.2-5c-4.4-8.3-8.6-16.7-12.7-25.3c-1-2.1-2.3-5.2,0.5-6.4
		s3.2,2.3,4.1,4.1c4.3,8.4,8.6,16.8,12.5,25.3c1.9,4.2,4,2,6.2,0.8s4.5-1.8,2.5-5.4c-3.8-7-7.1-14.3-10.5-21.5
		c-2-4.2-3.3-8.7-6-12.5c-3.7-5.2-9.5-4.9-12.6,0.7C341.7,172.1,341.1,173.4,340.6,174.8z M226.6,296.5c-4.4-4-7.1-8.4-10-12.5
		c-3.9-5.5-7.6-11.1-11.8-16.2c-4.8-5.9-10.3-6-17.1-1.1c-6.2,4.5-7.6,10.1-3.9,16.7c0.7,1.2,1.5,4.2,3.5,1.9
		c1.9-2.1,7.2-1.6,5.5-6.6c-0.5-1.6-1.3-2.9,0.2-4.3c0.7-0.9,2-1.1,3-0.5c1.6,0.8,2.6,2.5,2.4,4.4c-0.3,2.8-2,5-3.2,7.4
		c-3.6,7-2.9,12.7,2.4,18.5c2.7,3,5.9,5.6,10.2,4.8c4.6-0.9,6.7-4.4,7.3-8.9C220.3,303.3,222.2,297.5,226.6,296.5z M214.6,253
		c-4.5-3.7-6.5,0.8-8.9,2.5c-2.6,1.8,0.5,3.3,1.3,4.5c6.4,9.5,13,18.9,19.6,28.4c3.7,5.4,3.6,5.2,9.1,1.6c2.4-1.5,2.4-2.6,0.9-4.8
		c-3.5-4.9-6.9-10-10.2-15c-2.2-3.3-4.9-6.3-6.3-10.1c-0.5-1.3-0.7-2.5,0.5-3.5c1.4-1.1,2.4,0,3.2,0.9c1,1.1,1.9,2.2,2.7,3.4
		c4.7,7,9.5,14,14.1,21.1c1.5,2.3,2.7,3.8,5.3,1.3c1.1-0.9,2.3-1.7,3.6-2.4c1.1-0.7,1.6-1.3,0.7-2.6c-7-10.1-13.1-20.8-20.9-30.3
		c-2.1-2.6-4.8-4.8-8.6-3.7C216.5,245.5,214.9,248.5,214.6,253z M162.6,290.6c-4.5-4-6.7,0.5-9,2.4s0.8,3.5,1.8,4.9
		c6.3,8.7,12.8,17.2,19.1,25.7c4.1,5.6,4.1,5.5,9.9,1.4c1.9-1.3,2.1-2.1,0.7-4c-4.8-6.4-9.5-12.9-14.1-19.3
		c-1.1-1.6-2.1-3.2-2.9-4.9c-0.7-1.2-0.3-2.7,0.8-3.4c1.2-0.9,2.1,0,2.9,0.8c1.1,1.1,2.1,2.4,3.1,3.6c4.9,6.7,9.9,13.4,14.6,20.1
		c1.3,1.8,2.3,2.3,4.1,0.9c1.4-1.1,2.8-2.1,4.3-3c1.2-0.8,1.2-1.6,0.4-2.7c-6.8-9.2-13-19-20.5-27.7c-2.4-2.7-5.3-4.9-9.1-3.7
		C164.4,282.7,162.5,285.9,162.6,290.6z M445.8,161.7c-0.1-0.6-0.4-2.4-0.8-4.1c-1.7-6.5-2.1-6.5-7.8-3.4c-3.2,1.7-1.3,3.5-0.8,5.4
		c0.4,1.7,1,3.5-0.9,4.8c-0.8,0.6-1.9,0.6-2.6-0.1c-2.5-2.5-4.2-5.7-4.7-9.2c-0.4-2.7,3.1-2.5,4.8-3.7c2-1.3,4-2.5,6.2-3.5
		c1.4-0.7,1.8-1.4,1.1-3c-2.2-4.8-3.9-9.8-7.1-14.1c-3.8-5-9-5.8-14.2-2.3c-4.9,3.3-6.7,8.1-5.6,13.8c2,9.9,5.8,19.4,11.3,27.8
		c3.3,5.2,7.5,6.4,12.6,4.6C442.7,172.9,445.8,168.5,445.8,161.7z M169.5,332.2c0-4.3-1.8-9-3.8-11.1c-0.5-0.6-1.1-1.6-1.9-1.1
		c-2.2,1.2-4.3,2.6-6.2,4.4c-1.5,1.6,1,2.6,1.6,4s1.2,2.6-0.2,3.9s-2.9,0.9-4.2-0.3s-2.5-2.9-3.8-4.2c-1.9-2-1.7-3.4,0.7-4.8
		c2.8-1.8,5.5-3.8,8.2-5.7c1-0.7,2.3-1.2,1-2.9c-3-3.9-5.6-8.2-9.6-11.2c-5-3.6-10-3.3-15.2,0.8c-4.8,3.8-6.6,8.4-4.1,13.5
		c4.3,9,10.4,16.9,18,23.3c4,3.3,8.5,2.9,12.8,0.4C166.6,338.8,169.4,335.7,169.5,332.2z M382,202.8c5.1,0,10.3-4.4,11.4-9.8
		c1.9-9.1-5.2-19.6-14.2-21c-2.2-0.3-4.4-0.6-6.5-1.1c-1.9-0.4-3.4-2.1-3.5-4.1c-0.1-1.3,0.6-2.6,1.9-3.1c2.3-1,3.1,1.1,3.8,2.5
		c0.9,1.9,2.2,1.7,3.4,0.7c1.6-1.4,5.2-0.8,5-4.1c-0.4-5.1-6.9-9.6-11.9-8.6c-5.8,1.2-10.2,5.9-10.6,11.4
		c-0.6,7.6,3.2,14.5,9.3,16.9c3.3,1.1,6.7,1.8,10.2,2c2.3,0.1,4.2,2,4.4,4.3c0.2,1.3,0.1,2.7-1.3,3.3c-2.6,1-3.7-0.9-4.9-2.6
		c-0.2-0.3-0.3-0.6-0.6-0.8c-2.5-1.8-3.9,0.9-5.8,1.5c-1,0.3-2.6,0.4-2.2,2.4C370.5,196.9,377.5,202.8,382,202.8L382,202.8z
		 M471.4,147.7c-0.3-1.2-0.8-3.7-1.5-6.1c-2.2-6.7-2.2-6.5-8.1-3.2c-2.4,1.4-2.6,2.6-1.3,4.9c0.7,1.4,1.2,3,1.5,4.5
		c0.3,1.1-0.3,2.3-1.4,2.8c-1,0.4-1.8-0.5-2.3-1.3c-4.2-7.1-7.7-14.7-10.3-22.6c-0.6-1.1-0.1-2.4,0.9-2.9c0,0,0,0,0,0
		c1.4-0.7,2.4,0.1,3.1,1.3s1.3,2.6,2,3.8c0.4,0.6,0.5,1.4,1.6,1.2c5-0.5,7.1-4.8,4.5-9.1c-0.6-0.9-1.2-1.9-1.8-2.8
		c-3.9-5.2-7.7-6.7-12.5-4.7c-5.2,2.2-8,7.3-6.9,13.3c2,10.6,6.2,20.6,12.4,29.4c3.5,5,7.1,6.1,11.8,4.4
		C468.5,158.5,471.4,154.6,471.4,147.7L471.4,147.7z M237.8,232.8c-1,0.8-2.1,1.5-3.2,2.1c-3.7,1.8-4.3,3.6-1.6,7.4
		c6.8,9.5,13,19.3,19.5,29c3.8,5.6,3.7,5.5,9.4,1.5c1.6-1.1,2.1-1.8,0.9-3.6c-7.7-11.5-15.3-23.2-23-34.8
		C239.2,233.6,239,232.6,237.8,232.8z M346.4,221.4l-0.6-1.2c-7.1-12.7-13.9-25.5-19.9-38.8c-0.7-1.6-1.5-1.8-2.9-0.9
		c-1.6,1-3.3,2-5,2.7c-1.9,0.8-1.6,1.9-0.8,3.4c6.2,12.8,13,25.3,20.1,37.6c0.6,1,1.1,2.5,2.8,1.3
		C342.1,224.1,344.8,223.6,346.4,221.4L346.4,221.4z M314.5,180c2.3,0,8.8-4.5,8.3-5.4c-1.5-3-0.9-8-4.4-8.5c-2.3-0.3-7.2,1.5-7.5,5
		C310.8,174.2,312.8,177.6,314.5,180L314.5,180z M235.5,228.3c-0.1-1.1-5.9-8.6-6.4-8.2c-2.6,1.7-5.5,3-7.2,5.7
		c-0.4,0.7,5.8,8.2,6.6,8.2C229.6,233.9,235.6,229.1,235.5,228.3L235.5,228.3z"/>
	<path class="st3" d="M405.1,482.7c-7.4,7.7-15.8,14.2-24.1,20.7c-16.6,12.6-34,24.3-51.9,35c-24.8,15.2-49.7,15.6-75.2,2.2
		c-30.6-16.1-60.2-33.9-87-56.2c-11.1-9.3-21.4-19.5-31.6-29.7c-3.8-3.8-3.9-7-0.1-10.3c26.3-22.8,53.2-45,81.5-66.5
		c1.6,48.5,25,82.6,65.5,104.7S363.9,502.2,405.1,482.7z"/>
	<path class="st3" d="M448.6,438.6c5.6-11.1,10.8-22.4,12.7-34.9c5.8-37.8-3.5-70.9-29.3-98.8c-15.1-16.3-33.3-27.6-55-35
		c54.7-32.3,110.5-60.8,168.2-86.9c2.8,48.4-4.6,94.4-21.2,139c-16.6,44.6-43.4,82.6-74.6,117.6L448.6,438.6z M501.3,267.4
		c-1.5-9-2.8-16.8-4.2-24.6s-1.3-7.6-9.2-7.6c-3.2,0-3.7,1.1-3.1,3.9c2.6,11.5,5.1,23.1,7.6,34.6c2.2,9.9,2.2,9.8,12.3,9.5
		c2-0.1,3.1-0.5,3.5-2.7c3-13.9,6.2-27.8,9.2-41.6c0.2-1.1,0.7-3-0.1-3.1c-3.3-0.5-6.6-0.6-9.8-0.3c-2.1,0.2-1.7,2.8-2,4.3
		C504.2,248.6,502.9,257.4,501.3,267.4z M438.2,265.7c0.3,2.5,0.5,5.4,0.9,8.2c1.1,7.1,4.5,10.1,11.9,10.2c8.2,0.1,12-2.6,13.3-9.8
		c0.2-1.4,1.8-4.1-1.4-3.7c-2.6,0.3-6.5-2.7-7.6,2.2c-0.5,2.4-1.5,4.2-4,3.5c-3.5-1-2.2-4.4-2.6-6.9s1-2.8,3-2.7
		c3.5,0.1,6.9,0.1,10.4,0c1,0,2.1,0.4,2.6-1.3c3.3-10.3-2.9-19.3-13.4-19.1c-7.8,0.1-11.4,3.3-12.5,11.3
		C438.6,260.2,438.5,262.7,438.2,265.7z M475.6,283c4.5,1.4,5.7-0.5,5.5-5c-0.2-3.8,0.1-6.5-5.2-6.2c-4.4,0.2-6.3,0.8-6.1,6
		C470,282.4,471.1,284.3,475.6,283z M520.5,272.2c-4.4-1.2-6,0.3-5.7,5c0.2,3.7-0.2,6.6,5.1,6.2c4-0.3,6.3-0.3,5.8-5.5
		C525.4,274,525.9,270.5,520.5,272.2L520.5,272.2z"/>
	<path class="st3" d="M174.5,25.1c100,14,199.3,4.4,299-9.5c-1.1,3.1-3,3.1-4.4,3.8C424.9,40.7,380.5,61.5,336.9,84
		c-24.9,12.9-49.4,26.6-73.2,41.5c-6.8,4.3-10.6,2.9-13.7-4.6c-7.2-17.3-18.3-32.1-29.9-46.6C206,57,190.8,40.5,174.5,25.1z"/>
	<path class="st3" d="M361.4,334.3c-6.9-0.7-13.8-1.2-20.7-2s-13.5,0.2-20.1,1.9c-3,0.8-5.2,0.3-7.2-2.6c-3-4.1-6.6-7.8-9.7-11.8
		c-1.5-2-2.5-0.9-3.8,0c-1.9,1.2-0.5,2,0.3,3c3.2,3.8,6.3,7.6,9.5,11.3c2.3,2.7,2.7,5.3,0.9,8.6c-4.2,8-8.8,15.9-10,25.2
		c-0.4,3.3-1.3,6.7-1.3,10c0.1,3.6-1.2,5.1-4.6,6.3c-10.5,3.6-21,7.6-31.4,11.5c-1.8,0.7-3.6,1.4-5.4,0.3
		c-10.6-5.8-18.9-13.7-22.6-25.9c-1.1-3.5-0.4-5.8,2.8-8.1c9.5-6.7,18.7-14,28.2-20.8c28.3-20.3,57.8-38.9,87.2-57.4
		c6.4-4,11.7-2.6,17.1,0.5s9.5,7.5,13.2,12.2c4.3,5.5,4.3,9.5-0.2,15c-5.7,6.9-11.5,13.7-17.1,20.6
		C365,333.9,363.7,335.2,361.4,334.3z"/>
	<path class="st3" d="M24.1,286.1C12.3,238.9,4.2,192.4,10.2,143c26.8,31.8,51,64.3,83.5,89C69.7,248.8,44.6,263.5,24.1,286.1z"/>
	<path class="st3" d="M134.3,244.5c-3.9-0.3-7.7-1.5-11-3.5C111,234.2,100.5,225,90.7,215c-5-5.1-10.1-10.1-15.2-15.2
		c-6.2-6.1-6.1-10.5,0.8-16.2c16.8-14.1,33.6-28.1,50.5-42.1c5.5-4.6,9.8-4.3,14.9,0.9c15.3,15.6,30.6,31.1,45.9,46.7
		c5,5,5.2,11.4,0.1,16c-12.8,11.4-25.8,22.7-38.8,33.8C144.7,242.3,139.6,244.3,134.3,244.5z M112.7,191.3c-0.3,5,0.4,11.1,0.9,17.2
		c1,10.9,7.8,17.4,18.5,18.1c12.1,0.8,19.2-4,21.7-15.2c0.8-3.6,0.7-7.3,0.9-11c0.1-0.9,0.2-2.2-1.1-2.2c-4.3-0.1-8.7-0.9-12.7,0.3
		c-2.1,0.6-0.6,4.9-1.1,7.5c-0.1,0.5-0.3,0.9-0.3,1.4c-0.5,3.3-1.6,6.2-5.4,6.1c-4-0.1-5.1-3.3-5.4-6.7c-0.4-6.9-0.8-13.8-0.8-20.7
		c0-4.5,0.3-9,0.9-13.4c0.4-2.9,1.9-5.3,5.2-5.2c2.9,0,4.6,1.8,5.1,4.7c0.2,1.1,0.8,2.2,0.7,3.3c-0.6,4.4,1.7,5.1,5.2,4.5
		c0.8-0.1,1.6-0.1,2.4,0c7.7,0,7.7,0,6.8-7.8c-1.3-11.3-8.1-17.5-19.6-18.2c-10.6-0.6-18.3,5.1-20.5,15.7
		C112.8,176.4,112.7,183.3,112.7,191.3z"/>
	<path class="st3" d="M134.4,12.7c3.8,0.2,7.4,1.4,10.5,3.5c15.8,9.7,30.3,21.5,43,35.1c5,5.3,4.6,10.2-0.4,15.6
		c-13.7,14.7-27.3,29.4-40.9,44.1c-8.7,9.4-18.5,10.2-27.6,1.3C105.4,98.9,92.2,85.3,79,71.7c-4.6-4.7-4.7-11.6-0.5-16.1
		c10.8-11.7,21.7-23.3,35.2-31.9c4.1-2.6,8.1-5.5,12.2-8.2C128.4,13.7,131.3,12.7,134.4,12.7z M145.9,51.2c0.6-0.1,1.3-0.1,1.9,0
		c4.1,0.7,6-0.7,4.8-5.1c-0.1-0.6-0.1-1.3-0.1-1.9c-0.9-9-7.5-14.8-17.1-15.2c-10.1-0.4-17.1,4.8-18.9,13.6
		c-2.1,10.7,0.9,19.2,9.7,25.6c3.8,2.8,8,5.1,11,9.1c2.2,2.9,2.8,6.1,0.7,9.4c-0.9,1.8-3,2.6-4.9,2c-3.6-1.2-4.1-4.6-3.9-7.4
		c0.4-4.6-1.7-5-5.4-4.9c-9.4,0.2-9.4,0.1-8.2,9.7c0.9,7,4,12.6,11.1,14.6c7.7,2.1,15.4,2.2,21.6-4c6.9-6.9,8.1-26.2-1.9-33.5
		c-3.7-2.7-7.4-5.4-11.1-8.2c-2.2-1.6-4.2-3.5-5-6.3c-0.8-2.9-0.2-5.7,2.7-6.9c3.2-1.3,5,0.9,5.9,3.8c0.3,0.9,0.5,1.9,0.4,2.8
		c-0.4,2.5,0.8,3.1,2.9,2.8C143.3,51.1,144.6,51.1,145.9,51.2L145.9,51.2z"/>
	<path class="st3" d="M380.4,467.9c-11.5-0.3-20.7-6.4-29.5-13.1c-1.9-1.6-3-3.8-3.3-6.2c-1.5-10.3-3-20.6-4.5-30.9
		c-0.5-3.4,0.9-5.5,4-6.6c12.8-4.8,24.1-12.8,32.9-23.3c2.4-2.8,5-2.8,7.5-1.9c11.6,4,23,8.3,34.5,12.4c2.5,0.9,3,3.2,3.7,5.2
		c5.8,15.6,2.5,29.6-8,42c-6.2,7.1-13.3,13.2-21.3,18.2C391.8,466.8,386.1,468.3,380.4,467.9z"/>
	<path class="st3" d="M259.2,416.1c0.3-3.5-0.2-6.5,0.8-9.5c0.9-3.4,3.5-6.2,6.8-7.4c10.5-3.9,20.9-7.7,31.3-11.8
		c2.2-0.9,3.3-0.4,4.7,1.3c8.8,10.2,19.3,17.9,32,22.2c2,0.7,2.9,1.6,3.1,4c1.5,11.8,3.3,23.5,5.2,35.2c0.4,1.7-0.1,3.5-1.4,4.7
		c-7.5,8-17.7,13-28.6,14.1c-22.4,2.4-37.2-9.2-48.4-27.1C260,433.9,259.6,424.7,259.2,416.1z"/>
	<path class="st3" d="M443.3,365.5c-1.1,11-7,20.1-15.8,27.5c-2.2,1.9-5,1.4-7.6,0.5c-10.2-3.7-20.3-7.3-30.6-10.8
		c-2.5-0.8-4.3-3-4.5-5.6c-2.1-12.7-7.6-24-13.6-35.1c-2.4-4.3-1.8-7.5,1.4-11.1c6.2-6.8,12.1-14,17.9-21.1c1.2-1.7,3.2-2.6,5.3-2.4
		c11.3,0.6,21.5,4.5,28.7,13.4c9.2,11.3,15.5,24.6,18.4,38.9C443.1,361.7,443.2,363.6,443.3,365.5z"/>
	<path class="st3" d="M192.9,69.4c5.5-5.8,11.7-5.6,16.2,0.9c12.7,18,24.4,36.6,35,55.9c4.4,8.1,4.2,15.9-0.7,24
		c-6.2,10.2-15.3,17.4-24,25c-2.6,2.3-5.2,4.7-7.7,7.1c-6.4,6.2-11.3,6.8-18.2,1c-7.8-6.5-15.3-13.3-22.7-20.3
		c-9.4-8.9-17.6-18.9-24.5-29.8c-3.5-5.5-3.1-8.5,1.2-12.6l0.9,0.9c-4.4,4.6-2.1,8.8,0.7,12.9c7.7,11.3,16.7,21.8,26.8,31
		c6.5,5.9,12.9,11.8,19.7,17.2c5.6,4.5,8.9,3.9,14.1-0.9s10.8-9.9,16.4-14.6c5.8-4.9,11-10.7,15.2-17c5.5-8.1,5.3-15.9,0.6-24.3
		c-10.1-18.2-21.2-35.6-33-52.8c-5-7.3-7.9-7.8-15.2-2.8L192.9,69.4z"/>
	<path class="st3" d="M307.3,486c-22.9-6.5-43.3-17.1-58.5-37.4c5.4-0.4,9.2,0.5,12.8,4.2c10.7,10.8,23.6,19.1,37.9,24.4
		C303.8,478.9,305.9,481.8,307.3,486z"/>
	<path class="st3" d="M438.6,442.3c-13.5,19.7-30.4,34.1-52.9,40.8c2.1-3.6,3.5-7.6,7.5-9.6c13.5-6.7,24.7-16.5,34.6-27.8
		C430.9,442.3,433.9,441,438.6,442.3z"/>
	<path class="st3" d="M433.6,315.7c12.2,16.1,20,35.2,22.6,55.3c-3.6-1.4-6.8-2.4-7.2-7c-1.3-14.8-8.3-27.3-15.8-39.6
		C431.2,321.3,430.4,318.9,433.6,315.7z"/>
	<path class="st3" d="M108.1,110.9c4.5,3.3,8.5,7.1,12,11.4c4.2,5.1,3.6,11.3-1.5,15.8c-17,14.7-34.2,29.4-51.4,43.8
		c-3.6,3-7.6,2.7-11.3,0c-5.4-3.9-9.6-9.2-13.4-14.6l0.9-0.9c4.3,4.2,7.5,9.5,12.3,13.2c4.6,3.5,7.4,3.5,11.8-0.2
		c2.3-1.9,4.5-4,6.8-5.9c13.5-11.5,27-23,40.5-34.5c8.3-7.1,8.5-11.2,0.9-18.8c-2.8-2.8-5.6-5.6-8.4-8.4L108.1,110.9z"/>
	<path class="st3" d="M42.4,167.4c-9.7-9.4-17.9-20.1-25.3-31.4c-5.2-8-6.9-20.2,3.4-27.7c2.8-2,4.6-5.2,7.7-7l0.9,0.8
		c-3.1,3.2-6,6.6-9.4,9.5c-5.3,4.7-5.7,10.4-4.2,16.7c0.9,3.8,3.1,7,5.2,10.2c6.8,10,14.7,18.9,22.5,28L42.4,167.4z"/>
	<path class="st3" d="M167.4,98.4c8.1-10.1,16.9-19.4,25.6-29l0.9,0.9c-7.9,10.2-16.8,19.5-25.6,29L167.4,98.4z"/>
	<path class="st3" d="M29.2,100.3c8.3-8.6,16.5-17.4,25.6-25.1l0.9,0.9L30,101.3L29.2,100.3z"/>
	<path class="st3" d="M147.5,120.6c6.2-7.8,12.9-15.2,19.9-22.2l0.9,0.9c-6.6,7.4-13.3,14.8-19.9,22.2L147.5,120.6z"/>
	<path class="st3" d="M54.7,75.2c5-5.5,10-6,15.3-1.3c2.4,2.1,4.5,4.7,6.8,7.1L76,81.9c-1.6-1.5-3.3-3-4.9-4.5
		c-6.1-6.1-8.7-6.3-15.5-1.3L54.7,75.2z"/>
	<path class="st3" d="M92,95.5c5.8,4.7,11.1,9.9,16.1,15.5l-0.8,0.9L91.2,96.4L92,95.5z"/>
	<path class="st3" d="M76.9,81c5.6,4.2,10.3,9.4,15.2,14.5l-0.8,0.9L76,81.9L76.9,81z"/>
	<path class="st3" d="M449.3,439.6c-0.6,0.9-1.1,1.8-2.3,2c-0.2-1.5,0.7-2.2,1.6-3L449.3,439.6z"/>
	<path class="st3" d="M28.2,101.3l1-1l0.8,0.9l-0.8,0.9L28.2,101.3z"/>
	<path class="st3" d="M309.9,212.2c-1.7,1-3.7,1.8-5.1,3.2s0.7,2.8,1.4,3.9c3.1,5.4,6.2,10.8,9.7,16c1.7,2.6,1.2,3.9-1.3,5.1
		c-1.3,0.6-2.5,1.3-3.7,2.1c-1.7,1.2-2.6,0.7-3.7-1c-9.9-16.2-19.6-32.5-28.7-49.2c-1.3-2.3-0.6-3.2,1.4-4.4
		c7.1-4.4,7.1-4.4,10.8,3.1c1.8,3.6,3.7,7.1,5.3,10.8c1.1,2.5,2.6,2.1,3.9,0.8s5.4-0.8,3.3-4.8c-2.4-4.7-4.4-9.6-6.8-14.2
		c-1.6-3-1.3-4.5,1.9-6.1c6.4-3.3,6.3-3.5,9.2,3c6.9,15.5,15,30.4,23.4,45.1c1.2,2,3.6,4.2-0.6,5.8c-3,1.2-5.6,5.3-8.4-0.6
		c-2.6-5.5-6.1-10.5-9.2-15.7C311.9,213.9,311.5,212.5,309.9,212.2z"/>
	<path class="st3" d="M124.8,366.8l-5.9,4.3c-5.2,3.9-5.3,3.9-9.6-1.2c-1.8-2.1-3.2-4.4-5-6.4c-1.1-1.3-2.4-2.5-3.8-3.5
		c-1.9-1.3-3.7-0.4-5.1,1c-2,1.8,0.2,2.8,1,3.9c3.1,4.1,6.2,8.1,9.6,12c1.8,2,1.7,3-0.5,4.7c-6.7,5.1-6.6,5.2-11.8-1.3
		c-9.2-11.4-18.4-22.9-27.8-34.1c-2.2-2.7-2-4,0.7-5.9c3.6-2.5,6.9-5.5,10.5-8.2c4.2-3.2,8.9-5.3,14-2.3c5.6,3.4,9.9,8,10.3,15.2
		c0.2,2.6,0.2,4.3,3.4,4.9c3.9,0.7,6.4,3.8,8.9,6.8C116.7,360.4,119.7,364.5,124.8,366.8z M86.5,354.5c1.4-1.1,2.1-1.5,2.6-2
		c2.2-2.1,2.7-4.7,0.9-7.3s-3.7-5.9-7.8-4.5c-2.9,1-4.8,2.4-1.7,5.5c1.7,1.9,3.3,3.8,4.8,5.9C85.8,352.9,86.2,353.7,86.5,354.5z"/>
	<path class="st3" d="M408.6,186.9c-0.7,4-4.5,4-7.1,5c-1.4,0.6-2-2.7-2.8-4.3c-7.2-16.2-13.6-32.7-20-49.3c-2.4-6.1,3.3-5.3,5.7-7
		c3-2.1,2.7,1.7,3.2,2.9c1.7,3.8,3,7.7,4.5,11.6c0.3-0.1,0.8-0.1,0.8-0.2c3.1-8,10.8-7.9,14.7-0.1c4.8,9.4,9.1,19,12,29.2
		c2.4,8.5-2.4,13.5-10.3,11.3l-1.2-0.1L408.6,186.9z M396.4,156.5c1.8,7.1,4.6,13.9,8.5,20.2c0.6,1.2,2.1,1.7,3.3,1.2
		c1.4-0.6,1.6-1.9,1.2-3.2c-2-7.1-4.8-13.9-8.3-20.4c-0.5-1.2-1.9-1.9-3.2-1.5C396.3,153.1,396.5,154.6,396.4,156.5z"/>
	<path class="st3" d="M111.2,326.5c3.7-10.2,10.2-11.6,17.1-3.5c6.7,7.9,12.7,16.4,19.1,24.6c1.1,1.4,1.2,2.1-0.4,3.4
		c-6,4.9-5.9,5-10.7-1.3c-4.5-5.8-9-11.6-13.6-17.3c-1.2-1.5-2.6-4.2-4.8-2.1c-1.8,1.6-0.5,4,0.8,5.7c4.7,6.2,9.6,12.4,14.3,18.6
		c1,1.4,3.7,2.7,2.1,4.6c-1.8,2.1-4.4,3.5-6.9,5c-0.8,0.5-1.5-1-2-1.7c-10.6-13.4-21.1-26.9-31.7-40.2c-1.5-1.9-1.4-2.9,0.6-4.1
		c1.2-0.7,2.4-1.6,3.4-2.6c2-2,3.3-1.3,4.8,0.8C105.7,319.7,108.4,323,111.2,326.5z"/>
	<path class="st3" d="M480.3,127.7c1.6,4.9,3.7,9.6,6.3,14c2.9,5.2-2.4,4.7-4.2,6.5c-2.6,2.5-3.3-0.1-4.2-2
		c-8.3-16.8-16.4-33.6-24.9-50.2c-2.6-5,1.7-4.6,3.5-6.2c2.6-2.3,3.4-0.1,4.4,1.8c3.8,7.3,7.6,14.6,12.2,21.7
		c-0.2-2.3-0.3-4.6-0.5-6.9c-0.9-8.1-0.9-8.1,7.1-11.8c0.3,5.9,0.7,11.6,0.8,17.3c-0.1,2.2,0.8,4.4,2.5,5.9
		c5.7,5.4,11.2,10.9,16.9,16.2c1.7,1.6,1.8,2.4-0.2,3.9c-3.7,2.7-6.7,3.9-10.1-0.8C487.5,133.9,484.2,131.5,480.3,127.7z"/>
	<path class="st3" d="M258.2,249.2c-0.2-4,1.6-7.2,3.4-10.4c1.4-2.4,2.7-4.9,1.4-7.7c-0.7-1.6-1.8-3.1-4-2.3s-1.7,2.5-1.4,4
		c0.2,1.3,2.2,2.4,0.4,3.8c-2.1,1.5-4.2,2.8-6.4,4c-0.2,0.1-1-0.5-1.4-0.9c-4.4-4.6-3.9-12.9,0.9-17.3c6-5.5,13.8-5.9,17.9-0.2
		c5,6.8,9.3,14.1,13.9,21.1c1.4,2.1,2.9,4.2,4.2,6.4c1,1.7,4.1,3.3,3.1,4.8c-1.3,2.1-4.9,4.8-6.4,4.2c-4.8-1.9-4.2,2.3-5.6,4.2
		c-2.3,3.2-6.7,4.2-10.1,2.2C262.3,261.8,258.5,255.8,258.2,249.2z M269.3,241c-3,4.1-3.5,8.1-0.2,12c1.1,1.4,2.6,2.5,4.5,1.5
		s1.8-2.8,1.1-4.6C273.5,246.6,271.7,243.5,269.3,241L269.3,241z"/>
	<path class="st3" d="M340.6,174.8c0.5-1.4,1-2.7,1.7-4c3.1-5.6,8.9-5.9,12.6-0.7c2.7,3.8,4.1,8.3,6,12.5
		c3.4,7.2,6.7,14.5,10.5,21.5c2,3.7-0.3,4.3-2.5,5.4s-4.3,3.4-6.2-0.8c-3.9-8.6-8.2-17-12.5-25.4c-0.9-1.7-1.3-5.3-4.1-4.1
		s-1.5,4.4-0.5,6.4c4.1,8.5,8.3,16.9,12.7,25.3c1.3,2.4,1.9,4.1-1.2,5c-2.4,0.7-4.5,5-7.1-0.1c-6.3-12-12.5-24.1-18.1-36.5
		c-0.7-1.6-1.8-3.5,0.9-4.1S337.3,170.1,340.6,174.8z"/>
	<path class="st3" d="M226.6,296.5c-4.4,1-6.3,6.8-11.4,3.5c-0.6,4.5-2.8,8-7.3,8.9c-4.3,0.9-7.5-1.7-10.2-4.8
		c-5.2-5.8-6-11.5-2.4-18.5c1.2-2.4,2.9-4.6,3.2-7.4c0.2-1.8-0.7-3.5-2.4-4.4c-1-0.6-2.3-0.4-3,0.5c-1.6,1.4-0.8,2.7-0.2,4.3
		c1.7,5-3.6,4.5-5.5,6.6c-2.1,2.3-2.8-0.7-3.5-1.9c-3.7-6.5-2.4-12.1,3.9-16.7c6.8-4.9,12.3-4.8,17.1,1.1
		c4.2,5.2,7.9,10.8,11.8,16.2C219.5,288.2,222.3,292.5,226.6,296.5z M201.8,290.9c0.1,1.7,0.7,3.3,1.6,4.7c1.3,1.9,3,3.1,5.1,2
		c2.3-1.2,2-3.4,0.9-5.4c-0.8-1.6-1.7-3-2.7-4.5c-0.7-1-1.1-2.7-2.5-2.4c-1.2,0.2-1.5,1.8-1.9,3C202.2,289.3,202,290.2,201.8,290.9
		L201.8,290.9z"/>
	<path class="st3" d="M214.6,253c0.2-4.5,1.9-7.6,5.9-8.8c3.8-1.1,6.5,1.1,8.6,3.7c7.8,9.5,13.9,20.3,20.9,30.3
		c0.9,1.3,0.4,2-0.7,2.6c-1.3,0.6-2.5,1.4-3.6,2.4c-2.5,2.5-3.8,1-5.3-1.3c-4.6-7.1-9.4-14.1-14.1-21.1c-0.8-1.2-1.7-2.3-2.7-3.4
		c-0.9-1-1.9-2-3.2-0.9c-1.2,0.9-1,2.2-0.5,3.5c1.4,3.8,4.1,6.8,6.3,10.1c3.3,5.1,6.7,10.1,10.2,15c1.6,2.2,1.5,3.3-0.9,4.8
		c-5.5,3.6-5.4,3.7-9.1-1.6c-6.5-9.4-13.1-18.8-19.6-28.4c-0.8-1.2-4-2.7-1.3-4.5C208.2,253.8,210.1,249.4,214.6,253z"/>
	<path class="st3" d="M162.6,290.6c-0.1-4.7,1.9-7.8,5.9-9.1c3.8-1.2,6.7,1,9.1,3.7c7.6,8.7,13.7,18.4,20.5,27.7
		c0.9,1.2,0.8,1.9-0.4,2.7c-1.5,0.9-2.9,1.9-4.3,3c-1.8,1.5-2.8,1-4.1-0.9c-4.8-6.8-9.7-13.5-14.6-20.1c-0.9-1.3-2-2.5-3.1-3.6
		c-0.8-0.8-1.6-1.7-2.9-0.8c-1.2,0.7-1.5,2.2-0.8,3.4c0.8,1.7,1.8,3.4,2.9,4.9c4.6,6.5,9.3,13,14.1,19.3c1.4,1.9,1.2,2.7-0.7,4
		c-5.8,4.1-5.7,4.2-9.9-1.4c-6.4-8.6-12.9-17.1-19.1-25.7c-1-1.3-4.2-2.9-1.8-4.9S158.1,286.5,162.6,290.6z"/>
	<path class="st3" d="M445.8,161.7c0,6.8-3.1,11.2-8.5,13.1c-5.2,1.8-9.3,0.6-12.6-4.6c-5.5-8.5-9.3-17.9-11.3-27.8
		c-1.1-5.6,0.6-10.5,5.6-13.8c5.2-3.5,10.4-2.7,14.2,2.3c3.2,4.2,5,9.2,7.1,14.1c0.7,1.5,0.3,2.3-1.1,3c-2.1,1-4.2,2.2-6.2,3.5
		c-1.7,1.2-5.2,1-4.8,3.7c0.5,3.5,2.2,6.8,4.7,9.2c0.7,0.7,1.8,0.8,2.6,0.1c1.9-1.3,1.3-3.1,0.9-4.8c-0.5-2-2.4-3.7,0.8-5.4
		c5.7-3.1,6.2-3.1,7.8,3.4C445.4,159.3,445.6,161.1,445.8,161.7z M422.2,140.3c0.6,1.5,0.1,4.8,2.9,5.5c1.3,0.3,4.8-0.9,4.4-3.1
		c-0.4-2.6-1.1-6-4.6-6.6C422.6,135.7,422.1,137.5,422.2,140.3L422.2,140.3z"/>
	<path class="st3" d="M169.5,332.2c-0.1,3.5-2.8,6.6-6.7,8.9c-4.3,2.5-8.9,3-12.8-0.4c-7.6-6.4-13.7-14.3-18-23.3
		c-2.4-5.1-0.7-9.7,4.1-13.5c5.2-4.1,10.2-4.4,15.2-0.8c4.1,2.9,6.6,7.3,9.6,11.2c1.3,1.6,0,2.2-1,2.9c-2.7,1.9-5.4,4-8.2,5.7
		c-2.4,1.5-2.6,2.9-0.7,4.8c1.3,1.4,2.4,2.9,3.8,4.2s2.7,1.6,4.2,0.3s0.7-2.5,0.2-3.9s-3.1-2.4-1.6-4c1.8-1.7,3.9-3.2,6.2-4.4
		c0.8-0.5,1.3,0.5,1.9,1.1C167.6,323.2,169.4,327.9,169.5,332.2z M149.6,314.8c-1.5-2.3-2.8-4.8-5.7-5.4c-1.4-0.4-2.8,0.4-3.2,1.8
		c-0.1,0.3-0.1,0.5-0.1,0.8c0,2.8,1.5,5.6,4,6.3C146,318.6,148.2,316.6,149.6,314.8z"/>
	<path class="st3" d="M382,202.8c-4.5,0-11.6-5.9-12.3-10c-0.4-2,1.3-2.1,2.2-2.4c1.9-0.6,3.3-3.3,5.8-1.5c0.2,0.2,0.4,0.5,0.6,0.8
		c1.2,1.7,2.3,3.7,4.9,2.6c1.4-0.6,1.5-2,1.3-3.3c-0.2-2.3-2-4.2-4.4-4.3c-3.5-0.2-6.9-0.9-10.2-2c-6-2.4-9.8-9.3-9.3-16.9
		c0.4-5.5,4.7-10.2,10.6-11.4c5-1,11.5,3.5,11.9,8.6c0.3,3.3-3.3,2.7-5,4.1c-1.2,1-2.4,1.2-3.4-0.7c-0.7-1.5-1.5-3.6-3.8-2.5
		c-1.2,0.5-2,1.8-1.9,3.1c0.1,2,1.5,3.7,3.5,4.1c2.1,0.5,4.3,0.9,6.5,1.1c9,1.4,16.1,11.9,14.2,21
		C392.4,198.4,387.2,202.8,382,202.8z"/>
	<path class="st3" d="M471.4,147.6c0,7-2.9,10.9-8.4,12.9c-4.7,1.7-8.3,0.5-11.8-4.4c-6.2-8.8-10.5-18.8-12.4-29.4
		c-1.1-6,1.7-11.1,6.9-13.3c4.8-2,8.7-0.6,12.5,4.7c0.7,0.9,1.3,1.9,1.8,2.8c2.7,4.4,0.6,8.6-4.5,9.1c-1.1,0.1-1.3-0.6-1.6-1.2
		c-0.7-1.2-1.3-2.6-2-3.8s-1.7-2-3.1-1.3c-1.1,0.5-1.5,1.8-0.9,2.9c0,0,0,0,0,0c2.6,7.9,6.1,15.5,10.3,22.6c0.5,0.8,1.3,1.7,2.3,1.3
		c1.1-0.4,1.7-1.6,1.4-2.8c-0.3-1.6-0.8-3.1-1.5-4.5c-1.2-2.2-1.1-3.5,1.3-4.9c5.9-3.4,5.9-3.5,8.1,3.2
		C470.6,144,471.1,146.5,471.4,147.6z"/>
	<path class="st3" d="M237.8,232.8c1.2-0.2,1.5,0.9,2,1.6c7.6,11.6,15.2,23.2,23,34.8c1.2,1.8,0.8,2.5-0.9,3.6
		c-5.7,4-5.6,4.1-9.4-1.5c-6.5-9.7-12.7-19.6-19.5-29c-2.7-3.8-2.1-5.6,1.6-7.4C235.7,234.3,236.8,233.5,237.8,232.8z"/>
	<path class="st3" d="M346.4,221.4c-1.5,2.2-4.3,2.7-6.4,4.2c-1.7,1.2-2.2-0.3-2.8-1.3c-7.1-12.3-13.9-24.8-20.1-37.6
		c-0.7-1.5-1-2.6,0.8-3.4c1.7-0.8,3.4-1.7,5-2.7c1.4-0.9,2.2-0.7,2.9,0.9c6,13.3,12.8,26.1,19.9,38.8L346.4,221.4z"/>
	<path class="st3" d="M314.5,180.1c-1.7-2.5-3.8-5.9-3.5-8.9c0.3-3.5,5.1-5.3,7.5-5c3.5,0.5,2.9,5.6,4.4,8.5
		C323.3,175.5,316.8,180,314.5,180.1z"/>
	<path class="st3" d="M235.6,228.3c0.1,0.8-5.9,5.6-7.1,5.7c-0.8,0-7-7.5-6.6-8.2c1.7-2.7,4.7-4,7.2-5.7
		C229.7,219.7,235.5,227.2,235.6,228.3z"/>
	<path class="st1" d="M501.3,267.4c1.6-10,2.9-18.8,4.4-27.6c0.3-1.5-0.2-4.1,2-4.3c3.3-0.3,6.6-0.2,9.8,0.3c0.8,0.1,0.3,2,0.1,3.1
		c-3.1,13.9-6.2,27.7-9.2,41.6c-0.5,2.2-1.5,2.7-3.5,2.7c-10.1,0.4-10.1,0.4-12.3-9.5c-2.6-11.5-5-23.1-7.6-34.6
		c-0.6-2.9-0.1-3.9,3.1-3.9c7.9,0,7.9-0.1,9.2,7.6S499.8,258.5,501.3,267.4z"/>
	<path class="st1" d="M438.2,265.7c0.3-3,0.4-5.5,0.7-8.1c1.1-8,4.6-11.2,12.5-11.3c10.5-0.1,16.7,8.9,13.4,19.1
		c-0.5,1.6-1.6,1.3-2.6,1.3c-3.5,0-6.9,0.1-10.4,0c-2-0.1-3.4,0.2-3,2.7s-1,5.9,2.6,6.9c2.5,0.7,3.4-1.1,4-3.5
		c1.1-5,5.1-1.9,7.6-2.2c3.2-0.4,1.6,2.3,1.4,3.7c-1.3,7.2-5,9.9-13.3,9.8c-7.3-0.1-10.8-3-11.9-10.2
		C438.7,271.1,438.5,268.2,438.2,265.7z M451.5,260.4c2-0.1,4.2,0.7,4-2.6c-0.2-2.4-0.1-4.6-3.3-4.7s-3.3,2.2-3.5,4.5
		C448.5,260.3,449.8,260.7,451.5,260.4z"/>
	<path class="st1" d="M475.6,283c-4.5,1.3-5.6-0.5-5.8-5.2c-0.2-5.2,1.7-5.7,6.1-6c5.3-0.3,5,2.4,5.2,6.2
		C481.3,282.5,480.1,284.3,475.6,283z"/>
	<path class="st1" d="M520.5,272.2c5.5-1.8,4.9,1.8,5.3,5.7c0.5,5.2-1.9,5.2-5.8,5.5c-5.4,0.4-4.9-2.5-5.1-6.2
		C514.5,272.5,516.1,271,520.5,272.2z"/>
	<path class="st1" d="M112.7,191.3c0-8,0.1-15,1.5-21.7c2.2-10.7,9.9-16.4,20.5-15.7c11.5,0.7,18.2,7,19.6,18.2
		c0.9,7.8,0.9,7.8-6.8,7.8c-0.8-0.1-1.6-0.1-2.4,0c-3.5,0.6-5.8-0.1-5.2-4.5c0.1-1-0.5-2.2-0.7-3.3c-0.6-2.9-2.2-4.7-5.1-4.7
		c-3.3,0-4.8,2.3-5.2,5.2c-0.6,4.5-0.9,9-0.9,13.4c0,6.9,0.4,13.8,0.8,20.7c0.2,3.4,1.3,6.6,5.4,6.7c3.8,0.1,4.9-2.8,5.4-6.1
		c0.1-0.5,0.2-0.9,0.3-1.4c0.5-2.6-1-6.9,1.1-7.5c3.9-1.1,8.4-0.4,12.7-0.3c1.3,0,1.2,1.3,1.1,2.2c-0.2,3.7-0.1,7.5-0.9,11
		c-2.5,11.2-9.6,16-21.7,15.2c-10.7-0.7-17.5-7.2-18.5-18.1C113.1,202.5,112.4,196.4,112.7,191.3z"/>
	<path class="st1" d="M145.8,51.2c-1.3-0.1-2.5-0.1-3.8,0c-2.1,0.2-3.3-0.3-2.9-2.8c0.1-1-0.1-1.9-0.4-2.8c-0.9-3-2.6-5.1-5.9-3.8
		c-2.9,1.1-3.5,4-2.7,6.9c0.8,2.8,2.8,4.6,5,6.3c3.7,2.8,7.4,5.5,11.1,8.2c10,7.3,8.8,26.6,1.9,33.5c-6.2,6.2-13.9,6.2-21.6,4
		c-7.1-2-10.2-7.5-11.1-14.6c-1.3-9.6-1.2-9.5,8.2-9.7c3.7-0.1,5.8,0.3,5.4,4.9c-0.2,2.9,0.3,6.3,3.9,7.4c1.9,0.6,4-0.2,4.9-2
		c2.1-3.2,1.5-6.5-0.7-9.4c-2.9-3.9-7.1-6.3-11-9.1c-8.8-6.4-11.9-14.9-9.7-25.6c1.8-8.8,8.8-14,18.9-13.6
		c9.6,0.3,16.2,6.2,17.1,15.2c0,0.6,0,1.3,0.1,1.9c1.1,4.4-0.7,5.8-4.8,5.1C147.1,51.2,146.5,51.2,145.8,51.2z"/>
	<path class="st2" d="M148.4,121.5c6.6-7.4,13.3-14.8,19.9-22.2c8.7-9.5,17.6-18.8,25.6-29c7.3-4.9,10.2-4.4,15.2,2.8
		c11.7,17.1,22.9,34.6,33,52.8c4.7,8.4,4.9,16.2-0.6,24.3c-4.3,6.3-9.4,12.1-15.2,17c-5.6,4.7-11,9.7-16.4,14.6s-8.5,5.4-14.1,0.9
		c-6.8-5.4-13.3-11.3-19.7-17.2c-10.1-9.2-19.1-19.7-26.8-31C146.3,130.3,144,126.1,148.4,121.5z M215.8,138.8c0,2.6,0,4.8,0,7.1
		c-0.1,0.6-0.2,1.3-0.5,1.9c-1.2,2.9-4.5,3.9-5.3,1.5c-1.6-5.2-5.3-3.9-8.7-3.9c-4.7,0-5.2,0.7-3.9,5.3c1.8,6,6.8,9.4,14.3,9.5
		c7.8,0.1,14-3.5,15.4-10.1c2.5-11.8,2.6-24,0.3-35.9c-1.3-7.4-6.8-11-15-11.2c-7.8-0.1-13.2,3.5-15.2,10.5
		c-1.8,6.1-1.8,12.5-0.2,18.6c1.8,6.6,6.6,9.6,13.3,8.3C212.1,139.9,213.7,139.4,215.8,138.8L215.8,138.8z M190.3,130.8
		c0-7.9,0.1-15.7-0.1-23.6c0-1.5,1.2-4.2-1.5-4.2s-6.1-2-7.9,2c-1.6,4.1-5.6,6.8-10,6.8c-5,0.1-3.8,3.3-3.9,6.1
		c-0.3,4.4,2.9,2.5,4.9,2.9c0.8,0.1,1.6,0.1,2.4,0c3.1-0.5,4,0.8,3.9,3.9c-0.2,8.4-0.1,16.7-0.1,25.1c0,9.2,0,9,8.8,9
		c3.1,0,3.6-1.2,3.5-3.9C190.2,146.9,190.3,138.8,190.3,130.8L190.3,130.8z"/>
	<path class="st2" d="M29.1,102.1l0.8-0.9l25.7-25.2c6.9-5,9.4-4.8,15.5,1.3c1.6,1.6,3.3,3,4.9,4.5l15.2,14.5l16.1,15.5
		c2.8,2.8,5.6,5.6,8.4,8.4c7.6,7.6,7.4,11.8-0.9,18.8c-13.5,11.5-27,23-40.6,34.5c-2.3,2-4.5,4-6.8,5.9c-4.4,3.7-7.2,3.7-11.8,0.2
		c-4.8-3.7-8-9.1-12.3-13.2c-7.7-9.1-15.7-18-22.5-28c-2.2-3.2-4.3-6.4-5.2-10.2c-1.5-6.3-1.2-12,4.2-16.7
		C23.1,108.7,26,105.3,29.1,102.1z M80,137.4c0.7,2.7,0,5.4-0.3,8.1c-0.2,1.8-1.1,3.1-2.9,3.3c-1.6,0.3-3.1-0.7-3.4-2.3
		c0-0.1,0-0.2,0-0.2c-0.4-2.4-1.9-2.5-3.7-2.4c-1.9,0.1-3.8,0.1-5.7,0c-2.8-0.2-3.1,1-2.6,3.5c1.3,6.8,6.1,10.8,14,11.1
		c8.7,0.4,15.2-3.7,16.5-11.1c1.9-10.7,1.7-21.5,0.4-32.2c-1.2-10.3-6.9-14.1-18.1-13.6c-7.8,0.4-12.7,5.9-13.5,15.1
		c-0.1,1.4-0.2,2.9-0.2,4.3C60.3,136.6,65.2,140.8,80,137.4z M54.6,129.5c0-7.9,0.1-15.7-0.1-23.6c0-1.5,1.2-4.3-1.5-4.2
		s-6-2.2-7.9,1.8c-2.1,4.5-6,6.5-10.6,6.7c-2.4,0.1-3.1,0.9-3.3,3.4c-0.2,4.1,0.6,6.5,5.2,5.6s5.8,1.2,5.6,5.8
		c-0.4,7.9-0.2,15.7-0.1,23.6c0.2,10.1-2,8.5,8.7,8.8c3.2,0.1,4-1.2,3.9-4.2C54.5,145.2,54.6,137.3,54.6,129.5z"/>
	<path class="st2" d="M86.5,354.5c-0.3-0.8-0.7-1.6-1.1-2.3c-1.5-2.1-3.1-4-4.8-5.9c-3.1-3.1-1.2-4.6,1.7-5.5
		c4.1-1.4,5.9,1.8,7.8,4.5s1.3,5.1-0.9,7.3C88.7,353,88,353.4,86.5,354.5z"/>
	<path class="st2" d="M396.4,156.5c0.1-1.8-0.1-3.3,1.5-3.8c1.3-0.4,2.7,0.2,3.2,1.5c3.5,6.5,6.3,13.3,8.3,20.4
		c0.4,1.4,0.2,2.7-1.2,3.2c-1.2,0.5-2.7,0-3.3-1.2C401,170.4,398.1,163.6,396.4,156.5z"/>
	<path class="st2" d="M408.6,186.9l-0.4-1.1l1.2,0.1L408.6,186.9z"/>
	<path class="st2" d="M269.3,241c2.3,2.6,4.2,5.6,5.4,8.9c0.6,1.8,0.8,3.5-1.1,4.6s-3.4-0.1-4.5-1.5
		C265.9,249,266.4,245.1,269.3,241z"/>
	<path class="st2" d="M201.8,290.9c0.2-0.7,0.3-1.6,0.6-2.5c0.4-1.2,0.6-2.8,1.9-3c1.4-0.3,1.8,1.5,2.5,2.4c1,1.4,1.9,2.9,2.7,4.5
		c1,2,1.4,4.1-0.9,5.4c-2.2,1.1-3.9-0.1-5.1-2C202.5,294.2,202,292.6,201.8,290.9z"/>
	<path class="st2" d="M422.2,140.3c-0.1-2.8,0.5-4.6,2.8-4.2c3.4,0.6,4.2,4,4.6,6.6c0.3,2.2-3.1,3.4-4.4,3.1
		C422.3,145.2,422.8,141.9,422.2,140.3z"/>
	<path class="st2" d="M149.6,314.8c-1.4,1.9-3.6,3.9-4.9,3.5c-2.6-0.7-4-3.5-4-6.3c-0.1-1.4,1.1-2.6,2.5-2.7c0.3,0,0.5,0,0.8,0.1
		C146.8,310,148.1,312.5,149.6,314.8z"/>
	<path class="st3" d="M451.5,260.4c-1.7,0.3-3-0.1-2.8-2.7c0.2-2.4,0.5-4.6,3.5-4.5s3.1,2.3,3.3,4.7
		C455.8,261.1,453.6,260.3,451.5,260.4z"/>
	<path class="st3" d="M215.8,138.8c-2,0.6-3.7,1.2-5.4,1.5c-6.7,1.3-11.5-1.7-13.3-8.3c-1.6-6.1-1.6-12.5,0.2-18.6
		c1.9-7,7.4-10.6,15.2-10.5c8.2,0.1,13.7,3.7,15,11.2c2.3,11.9,2.2,24.1-0.3,35.9c-1.4,6.6-7.6,10.2-15.4,10.1
		c-7.5-0.1-12.6-3.5-14.3-9.5c-1.3-4.6-0.8-5.3,3.9-5.3c3.4,0,7.1-1.3,8.7,3.9c0.7,2.4,4.1,1.4,5.3-1.5c0.3-0.6,0.4-1.2,0.5-1.9
		C215.8,143.6,215.8,141.4,215.8,138.8z M216.3,121.9c-0.1-1.8-0.2-4.1-0.6-6.3c-0.2-1.7-1.7-2.9-3.4-2.8c-1.6-0.2-3.2,0.9-3.4,2.5
		c0,0,0,0,0,0.1c-1.1,4.2-1.1,8.6,0,12.9c0.5,2,1.7,3.1,3.7,2.9c1.9-0.1,3.3-1.7,3.2-3.5C216,125.8,216.2,124,216.3,121.9
		L216.3,121.9z"/>
	<path class="st3" d="M190.3,130.8c0,8-0.1,16.1,0,24.1c0.1,2.7-0.4,3.9-3.5,3.9c-8.8,0-8.8,0.2-8.8-9c0-8.4-0.1-16.7,0.1-25.1
		c0.1-3.1-0.8-4.4-3.9-3.9c-0.8,0.1-1.6,0.1-2.4,0c-2-0.4-5.2,1.5-4.9-2.9c0.2-2.8-1.1-6.1,3.9-6.1c4.4,0.1,8.4-2.6,10-6.8
		c1.7-4.1,5.2-2,7.9-2s1.4,2.7,1.5,4.2C190.4,115,190.3,122.9,190.3,130.8z"/>
	<path class="st3" d="M80,137.4c-14.7,3.4-19.7-0.8-19.6-16.4c0-1.4,0.1-2.9,0.2-4.3c0.8-9.2,5.7-14.7,13.5-15.1
		c11.2-0.6,16.9,3.2,18.1,13.6c1.2,10.7,1.5,21.5-0.4,32.2c-1.4,7.4-7.8,11.5-16.5,11.1c-7.8-0.3-12.7-4.4-14-11.1
		c-0.5-2.5-0.1-3.7,2.6-3.5c1.9,0.1,3.8,0.1,5.7,0c1.8-0.1,3.3,0,3.7,2.4c0.2,1.6,1.6,2.8,3.2,2.6c0.1,0,0.2,0,0.2,0
		c1.8-0.3,2.6-1.6,2.9-3.3C80,142.8,80.7,140.1,80,137.4z M80.7,120.5c-0.3-2.3,0.2-4.9-1-7.4c-0.5-1.4-1.9-2.2-3.4-2.1
		c-1.5-0.1-2.8,1-3.1,2.5c-1,4.4-0.9,9,0.1,13.4c0.3,1.7,1.9,2.8,3.5,2.6c1.6-0.1,2.5-1.1,3.1-2.6C80.7,124.9,80.4,122.8,80.7,120.5
		z"/>
	<path class="st3" d="M54.6,129.5c0,7.9-0.1,15.7,0,23.6c0.1,3-0.7,4.3-3.9,4.2c-10.7-0.3-8.6,1.3-8.7-8.8
		c-0.1-7.9-0.3-15.8,0.1-23.6c0.2-4.6-0.9-6.7-5.6-5.8c-4.7,0.9-5.5-1.5-5.2-5.6c0.2-2.5,0.9-3.3,3.3-3.4c4.7-0.2,8.5-2.2,10.6-6.7
		c1.9-4,5.3-1.7,7.9-1.8s1.5,2.7,1.5,4.2C54.7,113.7,54.6,121.6,54.6,129.5z"/>
	<path class="st2" d="M216.3,121.9c-0.1,2.2-0.3,3.9-0.4,5.7c0.1,1.9-1.3,3.4-3.2,3.5c-2,0.2-3.2-0.9-3.7-2.9
		c-1.1-4.2-1.1-8.6,0-12.9c0.2-1.6,1.7-2.8,3.4-2.6c0,0,0,0,0.1,0c1.7-0.1,3.1,1.1,3.4,2.8C216.1,117.8,216.1,120,216.3,121.9z"/>
	<path class="st2" d="M80.7,120.5c-0.2,2.3,0.1,4.4-0.7,6.4c-0.6,1.5-1.4,2.5-3.1,2.6c-1.7,0.2-3.2-0.9-3.5-2.6
		c-1-4.4-1.1-9-0.1-13.4c0.3-1.5,1.6-2.6,3.1-2.5c1.5-0.1,2.8,0.8,3.4,2.1C80.8,115.5,80.4,118.2,80.7,120.5z"/>
</g>
</svg>
